<svg width="19" height="19" viewBox="0 0 19 19" fill="none" xmlns="http://www.w3.org/2000/svg">
<path fill-rule="evenodd" clip-rule="evenodd" d="M0.791687 9.50008C0.791687 4.6906 4.69054 0.791748 9.50002 0.791748C14.3095 0.791748 18.2084 4.6906 18.2084 9.50008C18.2084 10.3668 17.7095 10.9303 17.1217 11.2708C16.5788 11.5854 15.8886 11.758 15.2774 11.8903C15.0825 11.9325 14.8938 11.971 14.7108 12.0084C14.2727 12.0978 13.8667 12.1806 13.4841 12.2919C12.9353 12.4515 12.6207 12.6231 12.4676 12.7959L11.875 12.2709L12.4676 12.7959C12.2413 13.0513 12.0962 13.416 12.0015 13.9135C11.934 14.2685 11.9025 14.6176 11.8683 14.9961C11.8525 15.1711 11.8361 15.3523 11.8154 15.5433C11.7571 16.0791 11.6603 16.7363 11.3352 17.2603C11.1607 17.5415 10.9179 17.791 10.5871 17.9642C10.2607 18.135 9.89305 18.2084 9.50002 18.2084C4.69054 18.2084 0.791687 14.3096 0.791687 9.50008ZM9.50002 2.37508C5.56499 2.37508 2.37502 5.56505 2.37502 9.50008C2.37502 13.4351 5.56499 16.6251 9.50002 16.6251C9.6968 16.6251 9.80041 16.5888 9.85279 16.5614C9.90074 16.5363 9.94424 16.4989 9.98972 16.4256C10.1045 16.2406 10.182 15.9183 10.2413 15.3722C10.2556 15.241 10.2688 15.0947 10.283 14.9391C10.3203 14.5282 10.3634 14.0524 10.4461 13.6177C10.5641 12.997 10.7836 12.3091 11.2824 11.746C11.7481 11.2203 12.4356 10.9479 13.0419 10.7716C13.4909 10.641 13.9969 10.5377 14.4593 10.4433C14.6277 10.4089 14.7904 10.3757 14.9424 10.3428C15.562 10.2087 16.0252 10.0763 16.328 9.90084C16.5858 9.75143 16.625 9.63984 16.625 9.50008C16.625 5.56505 13.4351 2.37508 9.50002 2.37508ZM9.10419 5.54175C9.10419 4.44867 9.99027 3.56258 11.0834 3.56258C12.1764 3.56258 13.0625 4.44867 13.0625 5.54175C13.0625 6.63483 12.1764 7.52092 11.0834 7.52092C9.99027 7.52092 9.10419 6.63483 9.10419 5.54175ZM11.0834 5.14592C10.8647 5.14592 10.6875 5.32312 10.6875 5.54175C10.6875 5.76038 10.8647 5.93758 11.0834 5.93758C11.302 5.93758 11.4792 5.76038 11.4792 5.54175C11.4792 5.32312 11.302 5.14592 11.0834 5.14592ZM4.35419 7.12508C4.35419 6.032 5.24027 5.14592 6.33335 5.14592C7.42644 5.14592 8.31252 6.032 8.31252 7.12508C8.31252 8.21816 7.42644 9.10425 6.33335 9.10425C5.24027 9.10425 4.35419 8.21816 4.35419 7.12508ZM6.33335 6.72925C6.11472 6.72925 5.93752 6.90645 5.93752 7.12508C5.93752 7.34371 6.11472 7.52092 6.33335 7.52092C6.55199 7.52092 6.72919 7.34371 6.72919 7.12508C6.72919 6.90645 6.55199 6.72925 6.33335 6.72925ZM4.75002 12.2709C4.75002 11.1778 5.63611 10.2917 6.72919 10.2917C7.82227 10.2917 8.70835 11.1778 8.70835 12.2709C8.70835 13.364 7.82227 14.2501 6.72919 14.2501C5.63611 14.2501 4.75002 13.364 4.75002 12.2709ZM6.72919 11.8751C6.51056 11.8751 6.33335 12.0523 6.33335 12.2709C6.33335 12.4895 6.51056 12.6667 6.72919 12.6667C6.94782 12.6667 7.12502 12.4895 7.12502 12.2709C7.12502 12.0523 6.94782 11.8751 6.72919 11.8751Z" fill="#E94057"/>
</svg>
