<svg width="19" height="19" viewBox="0 0 19 19" fill="none" xmlns="http://www.w3.org/2000/svg">
<path fill-rule="evenodd" clip-rule="evenodd" d="M5.29725 1.11777C5.44623 0.912938 5.68422 0.791748 5.9375 0.791748H12.2708C12.5241 0.791748 12.7621 0.91294 12.9111 1.11778C12.2315 1.61204 12.2645 1.58801 12.9111 1.11778L12.913 1.12041L12.9159 1.1245L12.9249 1.13704C12.9322 1.1473 12.942 1.16139 12.9543 1.17915C12.9788 1.21466 13.0128 1.26494 13.0543 1.32892C13.1374 1.45676 13.251 1.63994 13.3796 1.86983C13.6359 2.32801 13.9564 2.98026 14.2106 3.75628C14.4568 4.50745 14.6458 5.38977 14.6458 6.33341C14.6458 7.10969 14.4804 7.85461 14.1832 8.53148C13.4319 10.2431 11.8286 11.5366 9.89583 11.818V16.6251H13.0625C13.4997 16.6251 13.8542 16.9795 13.8542 17.4167C13.8542 17.854 13.4997 18.2084 13.0625 18.2084H5.14583C4.70861 18.2084 4.35417 17.854 4.35417 17.4167C4.35417 16.9795 4.70861 16.6251 5.14583 16.6251H8.3125V11.819C6.46383 11.5545 4.91052 10.3776 4.12171 8.76186C3.76331 8.02763 3.5625 7.20281 3.5625 6.33341C3.5625 5.27848 3.7988 4.29942 4.08793 3.49324C4.34001 2.79043 4.63768 2.20391 4.87244 1.79239C4.99018 1.58601 5.09308 1.42193 5.16803 1.30739C5.20553 1.25008 5.23612 1.20504 5.25818 1.17316C5.26921 1.15722 5.27811 1.14456 5.28469 1.1353L5.29279 1.12395L5.29549 1.12021L5.29649 1.11883L5.29725 1.11777ZM6.36654 2.37508C6.33013 2.43501 6.29021 2.50248 6.24772 2.57697C6.04681 2.92914 5.79229 3.43117 5.57832 4.02775M6.36654 2.37508H11.8418C11.8887 2.45222 11.9413 2.54184 11.9978 2.64281C12.218 3.03647 12.4913 3.5939 12.706 4.24927C12.8617 4.72449 12.9839 5.24278 13.0356 5.78154C12.785 5.8569 12.4611 5.9394 12.0979 5.99675C11.2309 6.13364 10.2667 6.10772 9.51148 5.65457C8.28757 4.92022 6.87671 4.94614 5.86351 5.10612C5.64538 5.14056 5.43976 5.18215 5.25099 5.22634C5.32902 4.80383 5.44473 4.40024 5.57832 4.02775M5.54454 8.06723C5.36567 7.70078 5.24163 7.30236 5.18346 6.88207L5.54454 8.06723ZM5.18346 6.88207C5.43256 6.80759 5.75238 6.72662 6.11045 6.67008C6.97745 6.53319 7.94159 6.55911 8.69686 7.01226C9.92076 7.74661 11.3316 7.72069 12.3448 7.56071C12.5396 7.52995 12.7245 7.49349 12.8962 7.45457C12.8507 7.60497 12.7962 7.75201 12.7334 7.89505C12.1186 9.2958 10.7182 10.2917 9.10417 10.2917C7.54126 10.2917 6.18838 9.38599 5.54454 8.06723" fill="#E94057"/>
</svg>
