<svg width="19" height="19" viewBox="0 0 19 19" fill="none" xmlns="http://www.w3.org/2000/svg">
<path fill-rule="evenodd" clip-rule="evenodd" d="M0.791687 9.50008C0.791687 4.6906 4.69054 0.791748 9.50002 0.791748C14.3095 0.791748 18.2084 4.6906 18.2084 9.50008C18.2084 9.71004 18.1249 9.91141 17.9765 10.0599L10.0598 17.9765C9.75065 18.2857 9.24939 18.2857 8.94023 17.9765L1.02356 10.0599C0.875094 9.91141 0.791687 9.71004 0.791687 9.50008ZM2.58482 7.77684C2.61001 7.76196 2.63505 7.74741 2.65996 7.73318C3.12347 7.46831 3.61774 7.26902 4.10229 7.26902C4.58684 7.26902 5.08112 7.46831 5.54463 7.73318C5.87044 7.91935 6.22048 8.16112 6.59339 8.45297C7.4933 7.70317 8.46385 7.26902 9.50002 7.26902C10.5362 7.26902 11.5067 7.70317 12.4067 8.45297C12.7796 8.16112 13.1296 7.91935 13.4554 7.73318C13.9189 7.46831 14.4132 7.26902 14.8977 7.26902C15.3823 7.26902 15.8766 7.46831 16.3401 7.73318C16.365 7.74741 16.39 7.76197 16.4152 7.77685C15.6446 4.67439 12.8408 2.37508 9.50002 2.37508C6.1592 2.37508 3.35541 4.67439 2.58482 7.77684ZM16.2343 9.56289C15.9804 9.37256 15.754 9.22189 15.5545 9.10789C15.1784 8.89296 14.973 8.85235 14.8977 8.85235C14.8225 8.85235 14.6171 8.89296 14.241 9.10789C13.9164 9.29337 13.5208 9.5759 13.0509 9.96838L11.4635 14.3337L16.2343 9.56289ZM9.50002 15.1002L11.4557 9.72203C10.7304 9.09896 10.0803 8.85235 9.50002 8.85235C8.9197 8.85235 8.26964 9.09896 7.54432 9.72203L9.50002 15.1002ZM5.94914 9.96838C5.47928 9.5759 5.08365 9.29337 4.75907 9.10789C4.38294 8.89296 4.17751 8.85235 4.10229 8.85235C4.02708 8.85235 3.82165 8.89296 3.44551 9.10789C3.24601 9.22189 3.01967 9.37256 2.76575 9.56289L7.53651 14.3337L5.94914 9.96838Z" fill="#E94057"/>
</svg>
