<svg width="10" height="14" viewBox="0 0 10 14" fill="none" xmlns="http://www.w3.org/2000/svg">
<path d="M4.99996 0.583496C7.73838 0.583496 9.95829 2.80341 9.95829 5.54183C9.95829 7.28341 9.15458 9.04454 7.81092 10.763C7.33404 11.3729 6.81541 11.9416 6.28408 12.4595C6.24031 12.5022 6.19727 12.5438 6.155 12.5842L5.9112 12.8129L5.68865 13.0134L5.48987 13.1851L5.36847 13.2857C5.15544 13.4593 4.85014 13.4607 4.63555 13.289L4.50862 13.1839L4.31075 13.013L4.08861 12.8128L3.84491 12.5842L3.71583 12.4595C3.18451 11.9416 2.66588 11.3729 2.189 10.763C0.845342 9.04454 0.041626 7.28341 0.041626 5.54183C0.041626 2.80341 2.26154 0.583496 4.99996 0.583496ZM4.99996 1.75016C2.90587 1.75016 1.20829 3.44774 1.20829 5.54183C1.20829 6.97458 1.90992 8.51201 3.10807 10.0444C3.55043 10.6101 4.03434 11.1407 4.53022 11.6242L4.76514 11.8489C4.84254 11.9215 4.92005 11.9942 4.99996 12.0641L5.23475 11.8489L5.4697 11.6242C5.96558 11.1407 6.44948 10.6101 6.89185 10.0444C8.09 8.51201 8.79163 6.97458 8.79163 5.54183C8.79163 3.44774 7.09405 1.75016 4.99996 1.75016ZM4.99996 3.2085C6.28862 3.2085 7.33329 4.25317 7.33329 5.54183C7.33329 6.83049 6.28862 7.87516 4.99996 7.87516C3.7113 7.87516 2.66663 6.83049 2.66663 5.54183C2.66663 4.25317 3.7113 3.2085 4.99996 3.2085ZM4.99996 4.37516C4.35563 4.37516 3.83329 4.8975 3.83329 5.54183C3.83329 6.18616 4.35563 6.7085 4.99996 6.7085C5.64429 6.7085 6.16663 6.18616 6.16663 5.54183C6.16663 4.8975 5.64429 4.37516 4.99996 4.37516Z" fill="#E94057"/>
</svg>
