<svg width="19" height="19" viewBox="0 0 19 19" fill="none" xmlns="http://www.w3.org/2000/svg">
<path fill-rule="evenodd" clip-rule="evenodd" d="M16.7193 0.961731C16.9097 1.11185 17.0208 1.34095 17.0208 1.58342V4.78342C17.0211 4.79466 17.0211 4.80587 17.0208 4.81705V13.6168C17.0208 14.841 16.0284 15.8334 14.8041 15.8334H13.2604C12.058 15.8334 11.0833 14.8587 11.0833 13.6563C11.0833 12.454 12.058 11.4793 13.2604 11.4793H15.4375V5.80056L7.12498 7.76862V15.2001C7.12498 16.4243 6.13253 17.4168 4.90831 17.4168H3.7604C2.55803 17.4168 1.58331 16.442 1.58331 15.2397C1.58331 14.0373 2.55803 13.0626 3.7604 13.0626H5.54165V7.15863C5.54141 7.1474 5.54141 7.13621 5.54165 7.12504V3.95842C5.54165 3.59237 5.79261 3.27404 6.14856 3.18862L16.0444 0.813615C16.2802 0.757029 16.5289 0.811611 16.7193 0.961731ZM7.12498 6.14152L15.4375 4.17345V2.58757L7.12498 4.58257V6.14152ZM5.54165 14.6459H3.7604C3.43248 14.6459 3.16665 14.9118 3.16665 15.2397C3.16665 15.5676 3.43248 15.8334 3.7604 15.8334H4.90831C5.25808 15.8334 5.54165 15.5499 5.54165 15.2001V14.6459ZM15.4375 13.0626H13.2604C12.9325 13.0626 12.6666 13.3284 12.6666 13.6563C12.6666 13.9843 12.9325 14.2501 13.2604 14.2501H14.8041C15.1539 14.2501 15.4375 13.9665 15.4375 13.6168V13.0626Z" fill="#E94057"/>
</svg>
