<svg width="21" height="20" viewBox="0 0 21 20" fill="none" xmlns="http://www.w3.org/2000/svg">
<path fill-rule="evenodd" clip-rule="evenodd" d="M13.9907 0.636191L12.5896 2.03728L18.5567 8.0043L19.9577 6.60321C20.7448 5.81615 20.7448 4.54008 19.9577 3.75303L16.8409 0.636191C16.0539 -0.150866 14.7778 -0.150865 13.9907 0.636191ZM3.34777 11.4084C3.14282 11.6133 3.27624 11.9642 3.56559 11.9812L4.01325 12.0075C4.26826 12.0225 4.47171 12.2259 4.48669 12.481L4.56843 13.8728C4.57342 13.9578 4.64124 14.0256 4.72624 14.0306L6.1181 14.1124C6.37311 14.1273 6.57656 14.3308 6.59154 14.5858L6.67328 15.9777C6.67828 16.0627 6.74609 16.1305 6.8311 16.1355L8.22295 16.2172C8.47797 16.2322 8.68142 16.4356 8.69639 16.6907L8.72159 17.1197C8.73858 17.409 9.08947 17.5424 9.29442 17.3375L16.9506 9.68133C17.0818 9.55015 17.0818 9.33747 16.9506 9.2063L11.4877 3.74344C11.3566 3.61227 11.1439 3.61227 11.0127 3.74344L3.34777 11.4084ZM1.07034 13.8573C0.8026 13.8416 0.576848 14.0545 0.576874 14.3227L0.57738 19.5239C0.577405 19.7813 0.786069 19.9899 1.04348 19.99L6.24464 19.9905C6.51285 19.9905 6.72575 19.7647 6.71003 19.497L6.63752 18.2625C6.62367 18.0266 6.43544 17.8384 6.19951 17.8245L4.91182 17.7489C4.83317 17.7443 4.77043 17.6815 4.76581 17.6029L4.69018 16.3152C4.67633 16.0792 4.4881 15.891 4.25218 15.8772L2.96448 15.8015C2.88584 15.7969 2.82309 15.7342 2.81847 15.6555L2.74285 14.3678C2.72899 14.1319 2.54077 13.9437 2.30484 13.9298L1.07034 13.8573Z" fill="#A7AFBB"/>
</svg>
