<svg width="19" height="18" viewBox="0 0 19 18" fill="none" xmlns="http://www.w3.org/2000/svg">
<path fill-rule="evenodd" clip-rule="evenodd" d="M11.4792 2.95833C11.4792 1.42804 12.7197 0.1875 14.25 0.1875C15.7803 0.1875 17.0209 1.42804 17.0209 2.95833C17.0209 4.48861 15.7803 5.72917 14.25 5.72917C12.7197 5.72917 11.4792 4.48861 11.4792 2.95833ZM14.25 1.77083C13.5942 1.77083 13.0625 2.3025 13.0625 2.95833C13.0625 3.61416 13.5942 4.14583 14.25 4.14583C14.9058 4.14583 15.4375 3.61416 15.4375 2.95833C15.4375 2.3025 14.9059 1.77083 14.25 1.77083ZM7.65888 3.79278C7.85554 3.72469 8.0711 3.73677 8.25891 3.82641L12.6118 5.90398C12.8622 6.02346 13.0317 6.26522 13.0587 6.54127C13.0858 6.81732 12.9664 7.08739 12.744 7.25316L9.29653 9.82306L12.7061 12.0676C12.8886 12.1877 13.0133 12.3779 13.0508 12.5931C13.0883 12.8083 13.0351 13.0294 12.904 13.2041L10.1364 16.8911C9.87398 17.2408 9.37773 17.3115 9.02805 17.049C8.67838 16.7865 8.60768 16.2903 8.87016 15.9406L11.1322 12.9271L7.48261 10.5246C7.26699 10.3826 7.13412 10.1445 7.12658 9.88644C7.11905 9.6284 7.23779 9.3829 7.44476 9.22861L10.7459 6.76782L7.87003 5.39523L5.00905 6.38586C4.59589 6.52892 4.14498 6.30996 4.00193 5.8968C3.85887 5.48364 4.07783 5.03274 4.49099 4.88968L7.65888 3.79278ZM17.9936 5.37145C18.2929 5.69009 18.2773 6.1911 17.9587 6.49049L15.5844 8.72141C15.3353 8.95541 14.9643 9.0032 14.6641 8.83994L13.6025 8.26265C13.2185 8.05377 13.0764 7.57306 13.2853 7.18896C13.4942 6.80486 13.9749 6.66282 14.359 6.87171L14.9175 7.17543L16.8745 5.3366C17.1931 5.03721 17.6942 5.05281 17.9936 5.37145ZM7.1481 10.8562C7.49635 11.1205 7.56434 11.6172 7.29996 11.9654L6.12446 13.5138C6.05876 13.6004 5.97596 13.6725 5.8812 13.7256L1.97219 15.9182C1.59085 16.1321 1.10833 15.9964 0.894433 15.615C0.680539 15.2337 0.816276 14.7512 1.19761 14.5373L4.96296 12.4253L6.03887 11.008C6.30324 10.6598 6.79986 10.5918 7.1481 10.8562Z" fill="white"/>
</svg>
