<svg width="16" height="16" viewBox="0 0 16 16" fill="none" xmlns="http://www.w3.org/2000/svg">
<path fill-rule="evenodd" clip-rule="evenodd" d="M9.18492 1.2115C8.51255 0.368303 7.23106 0.368303 6.55869 1.2115L5.75395 2.22069C5.43526 2.62034 4.95192 2.85311 4.44076 2.85309L3.15 2.85304C2.07154 2.85299 1.27254 3.85491 1.51256 4.90631L1.79984 6.1647C1.9136 6.66304 1.79422 7.18606 1.47551 7.58569L0.670686 8.59482C-0.00175229 9.43796 0.283408 10.6873 1.25508 11.1552L2.41804 11.7152C2.87859 11.937 3.21307 12.3564 3.3268 12.8547L3.61397 14.1132C3.8539 15.1646 5.00849 15.7206 5.98013 15.2526L7.14304 14.6926C7.60357 14.4708 8.14004 14.4708 8.60057 14.6926L9.76349 15.2526C10.7351 15.7206 11.8897 15.1646 12.1296 14.1132L12.4168 12.8547C12.5305 12.3564 12.865 11.937 13.3256 11.7152L14.4885 11.1552C15.4602 10.6873 15.7454 9.43796 15.0729 8.59482L14.2681 7.58569C13.9494 7.18606 13.83 6.66304 13.9438 6.1647L14.231 4.90631C14.4711 3.85491 13.6721 2.85299 12.5936 2.85304L11.3028 2.85309C10.7917 2.85311 10.3083 2.62034 9.98966 2.22069L9.18492 1.2115ZM7.87181 10.3135C8.98487 10.3135 9.88719 9.41116 9.88719 8.2981C9.88719 7.18503 8.98487 6.28271 7.87181 6.28271C6.75874 6.28271 5.85642 7.18503 5.85642 8.2981C5.85642 9.41116 6.75874 10.3135 7.87181 10.3135Z" fill="#A7AFBB"/>
</svg>
