<svg width="19" height="19" viewBox="0 0 19 19" fill="none" xmlns="http://www.w3.org/2000/svg">
<path fill-rule="evenodd" clip-rule="evenodd" d="M9.5 2.37508C8.40693 2.37508 7.52083 3.26118 7.52083 4.35425V4.75008H11.4792V4.35425C11.4792 3.26118 10.5931 2.37508 9.5 2.37508ZM13.0625 4.75008V4.35425C13.0625 2.38674 11.4675 0.791748 9.5 0.791748C7.53248 0.791748 5.9375 2.38674 5.9375 4.35425V4.75008H3.95833C3.08388 4.75008 2.375 5.45896 2.375 6.33341V16.6251C2.375 17.4995 3.08388 18.2084 3.95833 18.2084H15.0417C15.9161 18.2084 16.625 17.4995 16.625 16.6251V6.33341C16.625 5.45896 15.9161 4.75008 15.0417 4.75008H13.0625ZM11.4792 6.33341V7.12508C11.4792 7.56231 11.8336 7.91675 12.2708 7.91675C12.7081 7.91675 13.0625 7.56231 13.0625 7.12508V6.33341H15.0417V16.6251H3.95833V6.33341H5.9375V7.12508C5.9375 7.56231 6.29194 7.91675 6.72917 7.91675C7.16639 7.91675 7.52083 7.56231 7.52083 7.12508V6.33341H11.4792Z" fill="white"/>
</svg>
