<svg width="19" height="19" viewBox="0 0 19 19" fill="none" xmlns="http://www.w3.org/2000/svg">
<path d="M5.54169 12.2708C6.59224 12.2708 7.39665 12.4639 8.62603 12.9854L9.07867 13.1833L9.57315 13.4097L10.3004 13.7496L10.7191 13.9382C10.7856 13.9675 10.8505 13.9957 10.9139 14.0228L11.278 14.1735C12.149 14.5201 12.744 14.6458 13.4584 14.6458C14.209 14.6458 15.0436 14.4454 15.8857 14.1086C16.186 13.9885 16.4651 13.8597 16.7144 13.7314L16.9271 13.6182L17.0094 13.5711C17.3843 13.3461 17.8706 13.4677 18.0955 13.8426C18.3205 14.2175 18.1989 14.7038 17.824 14.9288L17.6094 15.0511L17.3428 15.1902C17.1 15.3116 16.807 15.4454 16.4737 15.5787C15.4603 15.9841 14.4394 16.2291 13.4584 16.2291C12.4078 16.2291 11.6034 16.0359 10.374 15.5145L9.92137 15.3166L9.42688 15.0901L8.69967 14.7502L8.28093 14.5616C8.21445 14.5324 8.14955 14.5042 8.08611 14.477L7.72206 14.3263C6.85106 13.9797 6.256 13.8541 5.54169 13.8541C4.79101 13.8541 3.9564 14.0544 3.11435 14.3912C2.81404 14.5113 2.53497 14.6401 2.28559 14.7684L2.07291 14.8816L1.99066 14.9288C1.61574 15.1537 1.12945 15.0321 0.904503 14.6572C0.679552 14.2823 0.801124 13.796 1.17604 13.5711L1.39065 13.4487L1.65725 13.3097C1.90002 13.1882 2.193 13.0545 2.52631 12.9211C3.53973 12.5158 4.56059 12.2708 5.54169 12.2708Z" fill="#E94057"/>
<path d="M5.54169 7.52075C6.59224 7.52075 7.39665 7.71394 8.62603 8.23538L9.07867 8.43327L9.57315 8.65973L10.3004 8.99964L10.7191 9.18822C10.7856 9.21748 10.8505 9.24567 10.9139 9.27283L11.278 9.4235C12.149 9.77014 12.744 9.89575 13.4584 9.89575C14.209 9.89575 15.0436 9.69545 15.8857 9.35863C16.186 9.2385 16.4651 9.1097 16.7144 8.98145L16.9271 8.8682L17.0094 8.82107C17.3843 8.59612 17.8706 8.71769 18.0955 9.09261C18.3205 9.46753 18.1989 9.95382 17.824 10.1788L17.6094 10.3011L17.3428 10.4402C17.1 10.5616 16.807 10.6954 16.4737 10.8287C15.4603 11.2341 14.4394 11.4791 13.4584 11.4791C12.4078 11.4791 11.6034 11.2859 10.374 10.7645L9.92137 10.5666L9.42688 10.3401L8.69967 10.0002L8.28093 9.81161C8.21445 9.78236 8.14955 9.75417 8.08611 9.72701L7.72206 9.57634C6.85106 9.2297 6.256 9.10409 5.54169 9.10409C4.79101 9.10409 3.9564 9.30439 3.11435 9.64121C2.81404 9.76134 2.53497 9.89014 2.28559 10.0184L2.07291 10.1316L1.99066 10.1788C1.61574 10.4037 1.12945 10.2821 0.904503 9.90723C0.679552 9.53231 0.801124 9.04602 1.17604 8.82107L1.39065 8.6987L1.65725 8.55966C1.90002 8.4382 2.193 8.30445 2.52631 8.17113C3.53973 7.76576 4.56059 7.52075 5.54169 7.52075Z" fill="#E94057"/>
<path d="M5.54169 2.77075C6.59224 2.77075 7.39665 2.96394 8.62603 3.48538L9.07867 3.68327L9.57315 3.90973L10.3004 4.24964L10.7191 4.43822C10.7856 4.46748 10.8505 4.49567 10.9139 4.52282L11.278 4.6735C12.149 5.02014 12.744 5.14575 13.4584 5.14575C14.209 5.14575 15.0436 4.94545 15.8857 4.60862C16.186 4.4885 16.4651 4.3597 16.7144 4.23145L16.9271 4.1182L17.0094 4.07107C17.3843 3.84612 17.8706 3.96769 18.0955 4.34261C18.3205 4.71753 18.1989 5.20382 17.824 5.42877L17.6094 5.55114L17.3428 5.69018C17.1 5.81164 16.807 5.94539 16.4737 6.07871C15.4603 6.48408 14.4394 6.72909 13.4584 6.72909C12.4078 6.72909 11.6034 6.53589 10.374 6.01446L9.92137 5.81657L9.42688 5.59011L8.69967 5.2502L8.28093 5.06161C8.21445 5.03236 8.14955 5.00416 8.08611 4.97701L7.72206 4.82634C6.85106 4.4797 6.256 4.35409 5.54169 4.35409C4.79101 4.35409 3.9564 4.55439 3.11435 4.89121C2.81404 5.01134 2.53497 5.14014 2.28559 5.26839L2.07291 5.38164L1.99066 5.42877C1.61574 5.65372 1.12945 5.53215 0.904503 5.15723C0.679552 4.78231 0.801124 4.29602 1.17604 4.07107L1.39065 3.9487L1.65725 3.80965C1.90002 3.68819 2.193 3.55445 2.52631 3.42112C3.53973 3.01576 4.56059 2.77075 5.54169 2.77075Z" fill="#E94057"/>
</svg>
