<svg width="19" height="19" viewBox="0 0 19 19" fill="none" xmlns="http://www.w3.org/2000/svg">
<path fill-rule="evenodd" clip-rule="evenodd" d="M9.50002 0.791748C4.69054 0.791748 0.791687 4.6906 0.791687 9.50008C0.791687 14.3096 4.69054 18.2084 9.50002 18.2084C14.3095 18.2084 18.2084 14.3096 18.2084 9.50008C18.2084 4.6906 14.3095 0.791748 9.50002 0.791748ZM12.0368 12.128C13.1158 11.1147 14.6289 10.3288 16.5835 10.2736C16.2266 13.5793 13.6088 16.2072 10.3079 16.5798C10.413 14.523 11.0248 13.0784 12.0368 12.128ZM8.7228 16.5832C8.8299 14.2146 9.53647 12.3041 10.9529 10.9739C12.2954 9.71305 14.1854 8.74652 16.5795 8.68979C16.2054 5.38522 13.5708 2.76581 10.2592 2.41505C10.1049 4.7857 9.427 6.70477 8.12933 8.0684C6.8099 9.45481 4.85995 10.1488 2.41658 10.2741C2.77478 13.5898 5.4076 16.2235 8.7228 16.5832ZM8.67169 2.42272C8.51995 4.49984 7.92633 5.98494 6.98235 6.9769C6.05199 7.95448 4.57553 8.56481 2.42075 8.6884C2.7928 5.40751 5.3931 2.8023 8.67169 2.42272Z" fill="#E94057"/>
</svg>
