<svg width="19" height="19" viewBox="0 0 19 19" fill="none" xmlns="http://www.w3.org/2000/svg">
<path fill-rule="evenodd" clip-rule="evenodd" d="M14.6459 2.37508C13.99 2.37508 13.4584 2.90674 13.4584 3.56258C13.4584 4.21842 13.99 4.75008 14.6459 4.75008C15.3017 4.75008 15.8334 4.21842 15.8334 3.56258C15.8334 2.90674 15.3017 2.37508 14.6459 2.37508ZM11.875 3.56258C11.875 2.03229 13.1156 0.791748 14.6459 0.791748C16.1761 0.791748 17.4167 2.03229 17.4167 3.56258C17.4167 5.09287 16.1761 6.33342 14.6459 6.33342C13.1156 6.33342 11.875 5.09287 11.875 3.56258ZM7.132 3.16678C7.44904 3.16957 7.73385 3.36126 7.85579 3.65393L11.0009 11.2022L11.9156 8.45807C12.0134 8.16476 12.273 7.95521 12.5803 7.92148C12.8876 7.88774 13.1865 8.036 13.3455 8.30111L18.0955 16.2178C18.2423 16.4623 18.2461 16.7669 18.1056 17.0151C17.9651 17.2633 17.7019 17.4167 17.4167 17.4167H1.58336C1.31619 17.4167 1.06704 17.282 0.920807 17.0584C0.774572 16.8348 0.750979 16.5525 0.858065 16.3078L6.39973 3.6411C6.52682 3.35062 6.81495 3.16399 7.132 3.16678ZM2.79383 15.8334H16.0185L12.8734 10.5917L11.8344 13.7088C11.73 14.022 11.4422 14.2375 11.1123 14.2496C10.7823 14.2616 10.4796 14.0677 10.3526 13.7629L7.10726 5.97413L2.79383 15.8334Z" fill="white"/>
</svg>
