<svg width="18" height="18" viewBox="0 0 18 18" fill="none" xmlns="http://www.w3.org/2000/svg">
<path d="M17.8357 14.4607L12.375 9L17.8357 3.53929C17.8942 3.48079 17.9369 3.41217 17.9639 3.33905C18.0382 3.1388 17.9954 2.9048 17.8357 2.74393L15.2561 0.164321C15.0952 0.00344728 14.8612 -0.0393024 14.661 0.036072C14.5878 0.0630718 14.5192 0.105821 14.4607 0.164321L9 5.62503L3.53929 0.164321C3.48079 0.105821 3.41217 0.0630718 3.33905 0.036072C3.1388 -0.0381774 2.9048 0.00344728 2.74393 0.164321L0.164321 2.74393C0.00344728 2.9048 -0.0393024 3.1388 0.036072 3.33905C0.0630718 3.41217 0.105821 3.48079 0.164321 3.53929L5.62503 9L0.164321 14.4607C0.105821 14.5192 0.0630718 14.5878 0.036072 14.661C-0.0381774 14.8612 0.00344728 15.0952 0.164321 15.2561L2.74393 17.8357C2.9048 17.9966 3.1388 18.0393 3.33905 17.9639C3.41217 17.9369 3.48079 17.8942 3.53929 17.8357L9 12.375L14.4607 17.8357C14.5192 17.8942 14.5878 17.9369 14.661 17.9639C14.8612 18.0382 15.0952 17.9966 15.2561 17.8357L17.8357 15.2561C17.9966 15.0952 18.0393 14.8612 17.9639 14.661C17.9369 14.5878 17.8942 14.5192 17.8357 14.4607Z" fill="#FE75A0"/>
</svg>
