<svg width="36" height="30" viewBox="0 0 36 30" fill="none" xmlns="http://www.w3.org/2000/svg">
<path d="M18.0003 29.3978C17.4651 29.3972 16.9425 29.2489 16.5004 28.9723C9.95159 24.897 7.11591 22.1026 5.55182 20.3556C2.21867 16.6317 0.62292 12.8084 0.667917 8.66813C0.720415 3.92362 4.87269 0.0644531 9.92409 0.0644531C13.5972 0.0644531 16.1413 1.96119 17.6228 3.54091C17.6698 3.59045 17.7278 3.63017 17.7929 3.65739C17.858 3.68462 17.9288 3.6987 18.0003 3.6987C18.0719 3.6987 18.1426 3.68462 18.2078 3.65739C18.2729 3.63017 18.3309 3.59045 18.3778 3.54091C19.8594 1.95966 22.4034 0.0644531 26.0766 0.0644531C31.128 0.0644531 35.2802 3.92362 35.3327 8.6689C35.3777 12.8099 33.7803 16.6332 30.4488 20.3564C28.8848 22.1034 26.0491 24.8977 19.5002 28.9731C19.0581 29.2494 18.5355 29.3974 18.0003 29.3978Z" fill="white"/>
</svg>
