<svg width="19" height="19" viewBox="0 0 19 19" fill="none" xmlns="http://www.w3.org/2000/svg">
<path d="M6.33335 9.50008C6.77058 9.50008 7.12502 9.85452 7.12502 10.2917V11.0834H7.91669C8.35391 11.0834 8.70835 11.4379 8.70835 11.8751C8.70835 12.3123 8.35391 12.6667 7.91669 12.6667H7.12502V13.4584C7.12502 13.8956 6.77058 14.2501 6.33335 14.2501C5.89613 14.2501 5.54169 13.8956 5.54169 13.4584V12.6667H4.75002C4.31279 12.6667 3.95835 12.3123 3.95835 11.8751C3.95835 11.4379 4.31279 11.0834 4.75002 11.0834H5.54169V10.2917C5.54169 9.85452 5.89613 9.50008 6.33335 9.50008Z" fill="#E94057"/>
<path fill-rule="evenodd" clip-rule="evenodd" d="M12.6667 9.50008C11.355 9.50008 10.2917 10.5634 10.2917 11.8751C10.2917 13.1868 11.355 14.2501 12.6667 14.2501C13.9784 14.2501 15.0417 13.1868 15.0417 11.8751C15.0417 10.5634 13.9784 9.50008 12.6667 9.50008ZM11.875 11.8751C11.875 11.4379 12.2295 11.0834 12.6667 11.0834C13.1039 11.0834 13.4584 11.4379 13.4584 11.8751C13.4584 12.3123 13.1039 12.6667 12.6667 12.6667C12.2295 12.6667 11.875 12.3123 11.875 11.8751Z" fill="#E94057"/>
<path fill-rule="evenodd" clip-rule="evenodd" d="M12.6667 0.791748C13.1039 0.791748 13.4584 1.14619 13.4584 1.58341V3.84532C13.4584 4.28255 13.1039 4.63699 12.6667 4.63699H10.2917V6.33342H12.6667C15.7273 6.33342 18.2084 8.8145 18.2084 11.8751C18.2084 14.9357 15.7273 17.4167 12.6667 17.4167H6.33335C3.27278 17.4167 0.791687 14.9357 0.791687 11.8751C0.791687 8.8145 3.27278 6.33342 6.33335 6.33342H8.70835V3.84532C8.70835 3.40809 9.06279 3.05365 9.50002 3.05365H11.875V1.58341C11.875 1.14619 12.2295 0.791748 12.6667 0.791748ZM6.33335 7.91675C4.14723 7.91675 2.37502 9.68896 2.37502 11.8751C2.37502 14.0612 4.14723 15.8334 6.33335 15.8334H12.6667C14.8528 15.8334 16.625 14.0612 16.625 11.8751C16.625 9.68896 14.8528 7.91675 12.6667 7.91675H6.33335Z" fill="#E94057"/>
</svg>
