<svg width="19" height="19" viewBox="0 0 19 19" fill="none" xmlns="http://www.w3.org/2000/svg">
<path fill-rule="evenodd" clip-rule="evenodd" d="M5.93748 4.35425C5.93748 2.38674 7.53246 0.791748 9.49998 0.791748C11.4675 0.791748 13.0625 2.38674 13.0625 4.35425V9.50008C13.0625 11.4676 11.4675 13.0626 9.49998 13.0626C7.53246 13.0626 5.93748 11.4676 5.93748 9.50008V4.35425ZM9.49998 2.37508C8.40691 2.37508 7.52081 3.26118 7.52081 4.35425V9.50008C7.52081 10.5931 8.40691 11.4792 9.49998 11.4792C10.593 11.4792 11.4791 10.5931 11.4791 9.50008V4.35425C11.4791 3.26118 10.593 2.37508 9.49998 2.37508ZM3.56248 8.31258C3.99971 8.31258 4.35415 8.66702 4.35415 9.10425C4.35415 11.9462 6.658 14.2501 9.49998 14.2501C12.342 14.2501 14.6458 11.9462 14.6458 9.10425C14.6458 8.66702 15.0003 8.31258 15.4375 8.31258C15.8747 8.31258 16.2291 8.66702 16.2291 9.10425C16.2291 12.5528 13.635 15.3955 10.2916 15.7873V17.4167C10.2916 17.854 9.93721 18.2084 9.49998 18.2084C9.06276 18.2084 8.70831 17.854 8.70831 17.4167V15.7873C5.36496 15.3955 2.77081 12.5528 2.77081 9.10425C2.77081 8.66702 3.12525 8.31258 3.56248 8.31258Z" fill="#E94057"/>
</svg>
