<svg width="19" height="19" viewBox="0 0 19 19" fill="none" xmlns="http://www.w3.org/2000/svg">
<path fill-rule="evenodd" clip-rule="evenodd" d="M9.50002 2.77083C7.31389 2.77083 5.54169 4.54304 5.54169 6.72917C5.54169 6.74789 5.54182 6.76657 5.54208 6.78523C5.80051 6.74828 6.0647 6.72917 6.33335 6.72917C7.51082 6.72917 8.60252 7.09639 9.50016 7.72256C10.3978 7.09651 11.4893 6.72936 12.6667 6.72936C12.9353 6.72936 13.1995 6.74848 13.458 6.78543C13.4582 6.76671 13.4584 6.74795 13.4584 6.72917C13.4584 4.54304 11.6861 2.77083 9.50002 2.77083ZM15.0174 7.2512C15.0335 7.07935 15.0417 6.90522 15.0417 6.72917C15.0417 3.66859 12.5606 1.1875 9.50002 1.1875C6.43944 1.1875 3.95835 3.66859 3.95835 6.72917C3.95835 6.90515 3.96656 7.07922 3.9826 7.25101C2.09729 8.13542 0.791687 10.0507 0.791687 12.2708C0.791687 15.3314 3.27278 17.8125 6.33335 17.8125C7.5107 17.8125 8.60229 17.4454 9.49988 16.8193C10.3975 17.4455 11.4892 17.8127 12.6667 17.8127C15.7273 17.8127 18.2084 15.3316 18.2084 12.271C18.2084 10.0508 16.9027 8.1356 15.0174 7.2512ZM13.1177 8.33811C12.9697 8.32132 12.8192 8.3127 12.6667 8.3127C11.9457 8.3127 11.2697 8.50548 10.6874 8.84231C11.0035 9.24313 11.2654 9.68864 11.462 10.1678C12.1906 9.75123 12.774 9.10981 13.1177 8.33811ZM11.8508 11.749C13.1039 11.1611 14.1009 10.1179 14.6286 8.83236C15.8213 9.51429 16.625 10.7988 16.625 12.271C16.625 14.4572 14.8528 16.2294 12.6667 16.2294C11.9456 16.2294 11.2695 16.0365 10.6872 15.6996C11.4311 14.7563 11.875 13.5654 11.875 12.2708C11.875 12.0948 11.8668 11.9208 11.8508 11.749ZM9.9511 10.6621C9.82942 10.3888 9.67768 10.1319 9.5001 9.89555C9.32249 10.1319 9.17073 10.3888 9.04902 10.6621C9.19703 10.6789 9.34752 10.6875 9.50002 10.6875C9.65255 10.6875 9.80307 10.6789 9.9511 10.6621ZM8.70875 12.2148C8.96718 12.2517 9.23137 12.2708 9.50002 12.2708C9.76867 12.2708 10.0329 12.2517 10.2913 12.2148C10.2916 12.2334 10.2917 12.2521 10.2917 12.2708C10.2917 13.1622 9.99709 13.9847 9.49995 14.6463C9.0029 13.9847 8.70835 13.1623 8.70835 12.271C8.70835 12.2522 8.70849 12.2335 8.70875 12.2148ZM7.53806 10.1678C7.73479 9.68863 7.99673 9.24308 8.31284 8.84224C7.73055 8.50533 7.05447 8.3125 6.33335 8.3125C6.18082 8.3125 6.03031 8.32113 5.88227 8.33792C6.226 9.10973 6.80946 9.75123 7.53806 10.1678ZM4.37133 8.8322C4.89905 10.1178 5.8961 11.1611 7.14929 11.749C7.13323 11.9209 7.12502 12.095 7.12502 12.271C7.12502 13.5655 7.56885 14.7563 8.31262 15.6996C7.73038 16.0364 7.05438 16.2292 6.33335 16.2292C4.14723 16.2292 2.37502 14.457 2.37502 12.2708C2.37502 10.7986 3.17873 9.51414 4.37133 8.8322Z" fill="#E94057"/>
</svg>
